# xmcd
#
# Track frame offsets: 
#        150
#        16585
#        25695
#        36739
#        44530
#        59786
#        68261
#        85697
#        100658
#        110612
#        122747
#        135164
#        147930
#        160850
#        169320
#        178007
#        189911
#
# Disc length: 2776 seconds
#
# Revision: 0
# Processed by: cddbd v1.5.2PL0 Copyright (c) Steve Scherf et al.
# Submitted via: ExactAudioCopyFreeDBPlugin 1.0
#
DISCID=dd0ad611
DTITLE=Various Artist - Faith, Hope and Country - Wings Of A Dove - Dis
DTITLE=c 2
DYEAR=2016
DGENRE=Country
TTITLE0=George Jones - Lonesome Valley
TTITLE1=Marty Robbins - There's Power In The Blood
TTITLE2=The Browns - Child Of The King
TTITLE3=Porter Wagoner and the Blackwood Brothers Quartet - When I Rea
TTITLE3=ch That City
TTITLE4=Elvis Presley - (There'll Be) Peace In The Valley
TTITLE5=Johnny Cash - Swing Low, Sweet Chariot
TTITLE6=Collin Raye - Love, Me
TTITLE7=Marth Robbins - The Great Speckled Bird
TTITLE8=Connie Smith - He Set Me Free
TTITLE9=Elvis Presley - He Touched Me
TTITLE10=The Oak Ridge Boys - Heaven Bound
TTITLE11=Marty Robbins - It's A Sin
TTITLE12=Porter Wagoner and the Blackwood Brothers Quartet - If We Nev
TTITLE12=er Meet Again
TTITLE13=The Chuck Wagon Gang - He Gave Me That Old Time Religion
TTITLE14=Connie Smith - Wings Of A Dove
TTITLE15=Marty Robbins - Almost Persuaded
TTITLE16=Carl Perkins, Jerry Lee Lewis, Johnny Cash - I'll Fly Away
EXTD=
EXTT0=
EXTT1=
EXTT2=
EXTT3=
EXTT4=
EXTT5=
EXTT6=
EXTT7=
EXTT8=
EXTT9=
EXTT10=
EXTT11=
EXTT12=
EXTT13=
EXTT14=
EXTT15=
EXTT16=
PLAYORDER=
